<svg width="32" height="32" viewBox="0 0 32 32" fill="none" xmlns="http://www.w3.org/2000/svg">
<path fill-rule="evenodd" clip-rule="evenodd" d="M10.7996 16.8887C10.7996 16.8891 10.8 16.8895 10.8002 16.8895C10.9802 17.0004 11.1879 17.0606 11.403 17.0606C12.038 17.0606 12.5577 16.5406 12.5577 15.9059V13.9051L12.5432 10.2354C12.5405 9.51522 13.1319 8.92778 13.8504 8.92778C14.2277 8.92778 14.5827 9.09079 14.8303 9.37194C14.8564 9.40164 14.8799 9.42635 14.9079 9.45459L19.9787 14.5551C20.534 15.1137 21.327 15.2734 22.0548 14.9727C22.7828 14.6724 23.2328 14 23.2328 13.2124V9.30716C23.2328 8.58786 23.8211 8 24.54 8C24.9179 8 25.2738 8.16384 25.5215 8.44603C25.5462 8.47427 25.568 8.49794 25.5942 8.52452L31.9774 15.0136C31.9919 15.0283 32 15.0483 32 15.069V15.0759C32 15.143 31.9196 15.1772 31.8713 15.1309C31.6559 14.9247 31.3723 14.8097 31.0739 14.8097C30.4387 14.8097 29.9189 15.3296 29.9189 15.9644V21.6933C29.9189 22.4126 29.3309 23.0004 28.6118 23.0004C28.2806 23.0004 27.9652 22.8748 27.7228 22.6499C26.713 21.7107 25.789 20.6702 24.8215 19.687L21.2635 16.0697C21.2493 16.0552 21.2371 16.0435 21.2226 16.0294L21.1964 16.0043C20.9811 15.7981 20.6972 15.683 20.3988 15.683C19.7636 15.683 19.2439 16.2032 19.2439 16.8378V21.1528C19.2439 21.8721 18.6556 22.4599 17.9367 22.4599C17.7737 22.4599 17.6121 22.4294 17.4606 22.3696C17.3437 22.3235 17.1896 22.2172 17.0735 22.1356C17.038 22.1109 17.0087 22.0886 16.9753 22.0621L10.8857 17.186C10.8664 17.1704 10.85 17.1572 10.8313 17.1408C10.6999 17.0276 10.5338 16.8745 10.4038 16.7796C10.2076 16.6364 9.97125 16.5575 9.72477 16.5575C9.08957 16.5575 8.57003 17.0776 8.57003 17.7122V20.2318C8.57003 20.9505 7.98259 21.5429 7.26246 21.539H7.2583C7.2473 21.539 7.23733 21.5386 7.22632 21.5386L7.2176 21.5382L7.20244 21.5373L7.1823 21.5361L7.17275 21.5352C7.16216 21.5344 7.15302 21.5338 7.14223 21.533L7.13911 21.5325L7.12167 21.5307L7.11793 21.5303C7.10464 21.5286 7.09322 21.5271 7.07972 21.5253L7.0683 21.5238L7.05501 21.522L7.02532 21.5166L7.01161 21.5139C7.00248 21.512 6.99438 21.5103 6.98524 21.5085L6.98379 21.508L6.96884 21.5045L6.94143 21.4977L6.93271 21.4954C6.91776 21.4914 6.9053 21.4877 6.89035 21.4835L6.88495 21.4819L6.87166 21.4777L6.8565 21.4727L6.85235 21.4713C6.83698 21.4659 6.82411 21.4613 6.80895 21.4561L6.80127 21.4534L6.79587 21.4511C6.77718 21.4439 6.76119 21.437 6.7425 21.4289L6.73648 21.4262L6.72381 21.4206C6.71509 21.4165 6.70741 21.4129 6.69869 21.4088L6.69599 21.4075L6.68996 21.4044C6.67813 21.3986 6.66837 21.3934 6.65633 21.3872L6.64532 21.3816L6.62622 21.371L6.61064 21.3619L6.60566 21.3587C6.59216 21.3509 6.58095 21.3438 6.56745 21.3355L6.56288 21.3328L6.55063 21.3249C6.54233 21.3195 6.53506 21.3147 6.52654 21.3089C6.03088 20.9596 5.53481 20.6075 5.04891 20.2445C3.34555 18.9712 1.71862 17.5843 0.0300086 16.2958C-0.00238478 16.2711 -0.00965253 16.2252 0.0136043 16.1918C0.0368611 16.1584 0.0823364 16.1492 0.116806 16.1708C0.300576 16.2867 0.511549 16.3475 0.728751 16.3475C1.36395 16.3475 1.88349 15.8274 1.88349 15.1928V12.4568C1.88349 11.9692 2.15697 11.5238 2.58722 11.2981C2.90222 11.1328 3.27994 11.0959 3.61093 11.2368C3.82357 11.3272 4.00941 11.4777 4.19007 11.6191L10.4291 16.6004C10.5298 16.681 10.6812 16.8145 10.7985 16.887C10.7989 16.8872 10.7991 16.8876 10.7991 16.888L10.7996 16.8887Z" fill="#222222"/>
</svg>
